<svg width="300" height="300" viewBox="0 0 300 300" fill="none" xmlns="http://www.w3.org/2000/svg">
<g id="error-404">
<path id="Vector" d="M289.219 232.92H268.125V107.468C268.12 103.118 266.39 98.9482 263.314 95.8725C260.239 92.7968 256.068 91.0667 251.719 91.0617H192.166L167.198 55.1531C165.796 53.1346 163.925 51.4856 161.747 50.3468C159.568 49.2079 157.147 48.6131 154.689 48.6131C152.231 48.6131 149.809 49.2079 147.631 50.3468C145.452 51.4856 143.582 53.1346 142.179 55.1531L117.209 91.0617H57.6563C53.3068 91.0673 49.137 92.7976 46.0614 95.8732C42.9859 98.9487 41.2556 103.118 41.25 107.468V232.92H20.168C19.5464 232.92 18.9502 233.166 18.5107 233.606C18.0711 234.046 17.8242 234.642 17.8242 235.263V244.481C17.8286 248.798 19.5451 252.936 22.5972 255.988C25.6493 259.04 29.7876 260.757 34.1039 260.761H275.276C279.592 260.756 283.73 259.039 286.782 255.987C289.834 252.935 291.551 248.797 291.555 244.481V235.263C291.555 234.643 291.31 234.048 290.871 233.608C290.433 233.169 289.839 232.921 289.219 232.92V232.92Z" fill="#E6E7E8"/>
<path id="Vector_2" d="M256.406 225.888V98.093C256.406 94.3634 254.925 90.7865 252.287 88.1493C249.65 85.5121 246.073 84.0305 242.344 84.0305H48.2812C44.5516 84.0305 40.9748 85.5121 38.3376 88.1493C35.7003 90.7865 34.2188 94.3634 34.2188 98.093V225.888H256.406Z" fill="#0066CC"/>
<path id="Vector_3" d="M239.937 225.888V109.432C239.937 108.189 239.443 106.997 238.564 106.117C237.685 105.238 236.492 104.745 235.249 104.745H55.3781C54.1349 104.745 52.9426 105.238 52.0636 106.117C51.1845 106.997 50.6906 108.189 50.6906 109.432V225.888H239.937Z" fill="#D4FBFF"/>
<path id="Vector_4" d="M10.793 225.888V235.109C10.7936 238.804 12.2618 242.348 14.8747 244.96C17.4876 247.573 21.0313 249.042 24.7266 249.042H265.898C269.594 249.042 273.138 247.574 275.752 244.961C278.365 242.348 279.834 238.804 279.834 235.109V225.888H10.793Z" fill="#0066CC"/>
<path id="Vector_5" d="M227.159 149.595L155.897 47.1094C154.71 45.4018 153.127 44.0067 151.284 43.0433C149.441 42.0799 147.392 41.5767 145.312 41.5767C143.233 41.5767 141.184 42.0799 139.341 43.0433C137.498 44.0067 135.915 45.4018 134.728 47.1094L63.4688 149.595C62.1245 151.528 61.3354 153.792 61.1871 156.142C61.0388 158.492 61.5369 160.837 62.6274 162.924C63.7179 165.011 65.3591 166.759 67.3729 167.979C69.3867 169.199 71.6962 169.844 74.0508 169.845H216.574C218.929 169.845 221.239 169.2 223.253 167.98C225.267 166.76 226.909 165.012 227.999 162.925C229.09 160.838 229.588 158.493 229.44 156.142C229.292 153.792 228.503 151.528 227.159 149.595V149.595Z" fill="#FFD7E5"/>
<path id="Vector_6" d="M220.423 154.28L149.161 51.7969C148.729 51.1761 148.154 50.669 147.484 50.3187C146.814 49.9685 146.069 49.7856 145.312 49.7856C144.556 49.7856 143.811 49.9685 143.141 50.3187C142.471 50.669 141.896 51.1761 141.464 51.7969L70.2141 154.277C69.7251 154.98 69.4381 155.804 69.3841 156.658C69.3301 157.513 69.5112 158.366 69.9079 159.125C70.3045 159.884 70.9014 160.52 71.6338 160.963C72.3662 161.407 73.2062 161.641 74.0625 161.641H216.574C217.43 161.641 218.27 161.407 219.002 160.963C219.734 160.52 220.33 159.884 220.727 159.126C221.123 158.367 221.305 157.514 221.251 156.66C221.197 155.806 220.911 154.983 220.423 154.28V154.28Z" fill="#9D6807"/>
<g id="Group">
<path id="Vector_7" d="M123.827 134.297C124.09 134.537 124.296 134.833 124.43 135.163C124.564 135.493 124.622 135.849 124.601 136.205C124.601 137.923 123.57 138.783 121.507 138.783H118.877V142.856C118.906 143.309 118.841 143.762 118.685 144.188C118.53 144.614 118.288 145.003 117.975 145.331C117.324 145.895 116.492 146.205 115.631 146.205C114.77 146.205 113.938 145.895 113.287 145.331C112.974 145.003 112.732 144.614 112.577 144.188C112.422 143.762 112.356 143.309 112.385 142.856V138.792H98.8711C98.4745 138.816 98.0772 138.757 97.7044 138.62C97.3317 138.482 96.9915 138.269 96.7055 137.993C96.4505 137.73 96.2507 137.42 96.1179 137.079C95.985 136.738 95.9219 136.374 95.932 136.008C95.9442 135.149 96.2336 134.317 96.757 133.636L112.695 110.742C113.026 110.272 113.469 109.891 113.984 109.634C114.479 109.381 115.026 109.248 115.582 109.247C116.439 109.233 117.269 109.546 117.902 110.123C118.236 110.44 118.497 110.825 118.666 111.253C118.835 111.68 118.909 112.139 118.882 112.598V133.636H121.512C122.338 133.572 123.16 133.806 123.827 134.297V134.297ZM102.792 133.627H112.38V119.766L102.792 133.627Z" fill="white"/>
<path id="Vector_8" d="M130.997 141.602C128.462 137.43 127.274 132.578 127.594 127.706C127.278 122.851 128.467 118.017 130.997 113.862C132.172 112.376 133.668 111.176 135.372 110.351C137.077 109.526 138.947 109.097 140.841 109.097C142.735 109.097 144.604 109.526 146.309 110.351C148.014 111.176 149.509 112.376 150.684 113.862C153.213 118.018 154.402 122.851 154.088 127.706C154.404 132.567 153.223 137.408 150.703 141.577C149.532 143.067 148.039 144.273 146.335 145.102C144.631 145.932 142.761 146.365 140.866 146.367C138.97 146.37 137.099 145.942 135.393 145.117C133.687 144.291 132.19 143.09 131.016 141.602H130.997ZM145.95 137.941C147.209 134.683 147.753 131.193 147.546 127.706C147.759 124.219 147.215 120.728 145.95 117.471C145.48 116.517 144.751 115.714 143.847 115.154C142.943 114.593 141.9 114.297 140.836 114.3C139.772 114.303 138.731 114.604 137.83 115.169C136.928 115.734 136.204 116.541 135.738 117.497C134.477 120.745 133.933 124.228 134.142 127.706C133.934 131.193 134.479 134.684 135.738 137.941C136.198 138.906 136.921 139.721 137.825 140.292C138.729 140.862 139.775 141.165 140.844 141.165C141.913 141.165 142.96 140.862 143.863 140.292C144.767 139.721 145.49 138.906 145.95 137.941V137.941Z" fill="white"/>
<path id="Vector_9" d="M185.702 134.297C185.965 134.537 186.17 134.834 186.304 135.164C186.438 135.494 186.497 135.849 186.476 136.205C186.476 137.923 185.444 138.783 183.38 138.783H180.75V142.856C180.778 143.309 180.713 143.762 180.558 144.188C180.403 144.614 180.162 145.003 179.85 145.331C179.199 145.895 178.367 146.205 177.506 146.205C176.645 146.205 175.813 145.895 175.163 145.331C174.849 145.003 174.607 144.614 174.452 144.188C174.297 143.762 174.231 143.309 174.26 142.856V138.792H160.744C160.347 138.816 159.95 138.757 159.577 138.62C159.204 138.482 158.864 138.269 158.578 137.993C158.324 137.73 158.124 137.419 157.991 137.078C157.858 136.737 157.795 136.374 157.805 136.008C157.816 135.148 158.106 134.316 158.632 133.636L174.57 110.742C174.9 110.272 175.342 109.891 175.856 109.634C176.351 109.381 176.899 109.248 177.455 109.247C178.312 109.233 179.141 109.546 179.775 110.123C180.109 110.439 180.37 110.825 180.539 111.252C180.709 111.68 180.782 112.139 180.755 112.598V133.636H183.384C184.211 133.571 185.034 133.806 185.702 134.297V134.297ZM164.665 133.627H174.255V119.766L164.665 133.627Z" fill="white"/>
</g>
<path id="Vector_10" d="M134.377 169.845H156.251V225.888H134.377V169.845Z" fill="#9D6807"/>
<path id="Vector_11" d="M134.377 169.845H141.408V225.888H134.377V169.845Z" fill="white"/>
<path id="Vector_12" d="M279.844 223.545H258.75V202.42C258.75 201.799 258.503 201.203 258.064 200.763C257.624 200.323 257.028 200.077 256.406 200.077C255.785 200.077 255.189 200.323 254.749 200.763C254.309 201.203 254.062 201.799 254.062 202.42V223.545H242.276V109.432C242.276 107.567 241.535 105.779 240.216 104.46C238.898 103.142 237.109 102.401 235.245 102.401H197.196L186.054 86.3742H242.344C245.451 86.3779 248.429 87.6138 250.626 89.8107C252.823 92.0076 254.059 94.9861 254.062 98.093V160.821C254.062 161.443 254.309 162.039 254.749 162.478C255.189 162.918 255.785 163.165 256.406 163.165C257.028 163.165 257.624 162.918 258.064 162.478C258.503 162.039 258.75 161.443 258.75 160.821V98.093C258.745 93.7433 257.015 89.5732 253.939 86.4975C250.864 83.4218 246.693 81.6917 242.344 81.6867H182.794L157.823 45.7781C156.421 43.7596 154.55 42.1106 152.372 40.9718C150.193 39.8329 147.772 39.2381 145.314 39.2381C142.856 39.2381 140.434 39.8329 138.256 40.9718C136.077 42.1106 134.207 43.7596 132.804 45.7781L107.834 81.6867H48.2813C43.9316 81.6917 39.7615 83.4218 36.6858 86.4975C33.6101 89.5732 31.88 93.7433 31.875 98.093V223.545H10.793C10.1714 223.545 9.57523 223.791 9.13569 224.231C8.69615 224.671 8.44922 225.267 8.44922 225.888V235.109C8.45418 239.424 10.1708 243.561 13.2224 246.612C16.274 249.663 20.4113 251.379 24.7266 251.384H265.898C270.214 251.38 274.353 249.664 277.405 246.613C280.457 243.562 282.175 239.425 282.18 235.109V225.888C282.18 225.268 281.935 224.673 281.496 224.233C281.058 223.794 280.464 223.546 279.844 223.545ZM235.247 107.088C235.868 107.088 236.465 107.335 236.904 107.775C237.344 108.214 237.591 108.81 237.591 109.432V223.545H158.606V172.188H216.574C219.357 172.188 222.087 171.426 224.467 169.985C226.848 168.543 228.788 166.477 230.077 164.011C231.366 161.544 231.955 158.772 231.779 155.995C231.604 153.217 230.672 150.541 229.083 148.256L200.456 107.088H235.247ZM53.0344 223.545V109.432C53.0344 108.81 53.2813 108.214 53.7208 107.775C54.1604 107.335 54.7565 107.088 55.3781 107.088H90.1711L61.5445 148.256C59.9553 150.542 59.0226 153.219 58.8477 155.997C58.6729 158.775 59.2626 161.548 60.5528 164.015C61.843 166.482 63.7844 168.547 66.1661 169.988C68.5478 171.429 71.2788 172.19 74.0625 172.188H132.03V223.545H53.0344ZM136.718 172.188H153.907V223.545H136.718V172.188ZM136.655 48.4523C137.626 47.0551 138.921 45.9136 140.429 45.1253C141.937 44.337 143.613 43.9253 145.315 43.9253C147.016 43.9253 148.693 44.337 150.201 45.1253C151.709 45.9136 153.004 47.0551 153.975 48.4523L225.234 150.938C226.334 152.519 226.98 154.372 227.101 156.295C227.222 158.218 226.815 160.137 225.922 161.844C225.03 163.552 223.687 164.982 222.039 165.98C220.391 166.978 218.501 167.506 216.574 167.505H74.0625C72.1349 167.508 70.2436 166.982 68.5939 165.985C66.9443 164.987 65.5995 163.557 64.7056 161.85C63.8117 160.142 63.403 158.222 63.5237 156.298C63.6445 154.374 64.2902 152.52 65.3906 150.938L136.655 48.4523ZM36.5625 98.093C36.5662 94.9861 37.8021 92.0076 39.999 89.8107C42.1958 87.6138 45.1744 86.3779 48.2813 86.3742H104.576L93.4312 102.401H55.3781C53.5133 102.401 51.7249 103.142 50.4063 104.46C49.0877 105.779 48.3469 107.567 48.3469 109.432V223.545H36.5625V98.093ZM277.5 235.109C277.496 238.182 276.272 241.128 274.099 243.3C271.925 245.472 268.979 246.694 265.905 246.696H24.7266C21.6541 246.693 18.7083 245.471 16.5356 243.299C14.3628 241.127 13.1404 238.181 13.1367 235.109V228.232H277.5V235.109Z" fill="#3A2C60"/>
<path id="Vector_13" d="M256.406 168.673C255.785 168.673 255.189 168.92 254.749 169.359C254.309 169.799 254.062 170.395 254.062 171.016V191.287C254.062 191.909 254.309 192.505 254.749 192.945C255.189 193.384 255.785 193.631 256.406 193.631C257.028 193.631 257.624 193.384 258.064 192.945C258.503 192.505 258.75 191.909 258.75 191.287V171.016C258.75 170.395 258.503 169.799 258.064 169.359C257.624 168.92 257.028 168.673 256.406 168.673Z" fill="#3A2C60"/>
</g>
</svg>
