<svg width="1133" height="768" viewBox="0 0 1133 768" fill="none" xmlns="http://www.w3.org/2000/svg">
<g id="schedule">
<path id="Vector" d="M958.84 626C958.84 626 946.55 617.89 934.37 623.66C934.37 623.66 938.12 630.89 953.54 630.2L958.84 626Z" fill="#6C63FF"/>
<path id="Vector_2" d="M960.35 626.44C960.35 626.44 964.09 640.68 954.72 650.37C954.72 650.37 949.08 644.49 954.72 630.11L960.35 626.44Z" fill="#6C63FF"/>
<path id="Vector_3" d="M975.68 612.77C975.68 612.77 974.77 600.65 947.43 604.67C947.43 604.67 947.3 612.49 956.9 616.19C966.5 619.89 970.89 616.77 975.68 612.77Z" fill="#6C63FF"/>
<path id="Vector_4" d="M977.36 612.68C977.36 612.68 988.93 616.4 978.62 642.05C978.62 642.05 970.99 640.34 969.62 630.14C968.25 619.94 972.35 616.4 977.36 612.68Z" fill="#6C63FF"/>
<path id="Vector_5" d="M992.85 595.5C992.85 595.5 994.41 575.57 966.46 577.62C966.46 577.62 964.46 595.62 987.91 600.29L992.85 595.5Z" fill="#6C63FF"/>
<path id="Vector_6" d="M1011.32 573C1011.32 573 1007.48 550.42 979.55 557.15C979.55 557.15 979.44 576.68 1006.75 578.39L1011.32 573Z" fill="#6C63FF"/>
<path id="Vector_7" d="M1024.81 549.74C1024.81 549.74 1018.4 527.74 990.72 534.33C990.72 534.33 997.3 554.11 1022.97 553.81L1024.81 549.74Z" fill="#6C63FF"/>
<path id="Vector_8" d="M1037.63 527.03C1037.63 527.03 1031.36 504.2 1004.63 511.03C1004.63 511.03 1013.55 532.72 1035.87 530.9L1037.63 527.03Z" fill="#6C63FF"/>
<path id="Vector_9" d="M1045.9 505.45C1045.9 505.45 1041.08 477.57 1016.19 483.71C1016.19 483.71 1023.43 509.11 1044.09 509.51L1045.9 505.45Z" fill="#6C63FF"/>
<path id="Vector_10" d="M1053.64 479.38C1053.64 479.38 1047.86 451.23 1022.64 459.38C1022.64 459.38 1032.53 485.97 1051.86 483.22L1053.64 479.38Z" fill="#6C63FF"/>
<path id="Vector_11" d="M993.61 595.36C993.61 595.36 1013.43 592.76 1012.83 620.78C1012.83 620.78 994.92 623.69 989.08 600.53L993.61 595.36Z" fill="#6C63FF"/>
<path id="Vector_12" d="M1012.25 572.25C1012.25 572.25 1035.16 572.17 1033.25 600.85C1033.25 600.85 1014.03 604.28 1007.68 577.66L1012.25 572.25Z" fill="#6C63FF"/>
<path id="Vector_13" d="M1049.44 49H88.56C86.2897 49 84.1125 49.9019 82.5072 51.5072C80.9019 53.1125 80 55.2898 80 57.56V82.5H1058V57.56C1058 55.2898 1057.1 53.1125 1055.49 51.5072C1053.89 49.9019 1051.71 49 1049.44 49Z" fill="#17252A"/>
<path id="Vector_14" d="M80.5 644.725V83.5H1053.5V644.725C1053.5 649.175 1051.74 653.442 1048.61 656.588C1045.48 659.733 1041.24 661.5 1036.81 661.5H97.1894C92.7639 661.5 88.5192 659.733 85.3891 656.588C82.2589 653.442 80.5 649.175 80.5 644.725Z" fill="white" stroke="#17252A"/>
<path id="Vector_15" opacity="0.8" d="M94.77 69.37C96.9792 69.37 98.77 67.5791 98.77 65.37C98.77 63.1609 96.9792 61.37 94.77 61.37C92.5609 61.37 90.77 63.1609 90.77 65.37C90.77 67.5791 92.5609 69.37 94.77 69.37Z" fill="#FA5959"/>
<path id="Vector_16" opacity="0.8" d="M105.77 69.37C107.979 69.37 109.77 67.5791 109.77 65.37C109.77 63.1609 107.979 61.37 105.77 61.37C103.561 61.37 101.77 63.1609 101.77 65.37C101.77 67.5791 103.561 69.37 105.77 69.37Z" fill="#FED253"/>
<path id="Vector_17" opacity="0.8" d="M116.77 69.37C118.979 69.37 120.77 67.5791 120.77 65.37C120.77 63.1609 118.979 61.37 116.77 61.37C114.561 61.37 112.77 63.1609 112.77 65.37C112.77 67.5791 114.561 69.37 116.77 69.37Z" fill="#8CCF4D"/>
<g id="Group" opacity="0.3">
<path id="Vector_18" opacity="0.3" d="M1020.77 116.37H116.77V626.37H1020.77V116.37Z" stroke="#3F3D56" stroke-miterlimit="10"/>
<path id="Vector_19" opacity="0.3" d="M902.77 116.37H234.77V626.37H902.77V116.37Z" stroke="#3F3D56" stroke-miterlimit="10"/>
<path id="Vector_20" opacity="0.3" d="M784.77 116.37H352.77V626.37H784.77V116.37Z" stroke="#3F3D56" stroke-miterlimit="10"/>
<path id="Vector_21" opacity="0.3" d="M666.77 116.37H470.77V626.37H666.77V116.37Z" stroke="#3F3D56" stroke-miterlimit="10"/>
<path id="Vector_22" opacity="0.3" d="M568.77 116.37V626.37" stroke="#3F3D56" stroke-miterlimit="10"/>
<path id="Vector_23" opacity="0.3" d="M1020.77 190.37H116.77V552.37H1020.77V190.37Z" stroke="#3F3D56" stroke-miterlimit="10"/>
<path id="Vector_24" opacity="0.3" d="M1020.77 263.37H116.77V479.37H1020.77V263.37Z" stroke="#3F3D56" stroke-miterlimit="10"/>
<path id="Vector_25" opacity="0.3" d="M1020.77 336.37H116.77V406.37H1020.77V336.37Z" stroke="#3F3D56" stroke-miterlimit="10"/>
</g>
<path id="Vector_26" opacity="0.1" d="M329.27 144.87H258.27V170.87H329.27V144.87Z" fill="#3F3D56"/>
<path id="Vector_27" opacity="0.1" d="M200.27 215.87H147.27V241.87H200.27V215.87Z" fill="#3F3D56"/>
<path id="Vector_28" opacity="0.1" d="M444.27 144.87H373.27V170.87H444.27V144.87Z" fill="#3F3D56"/>
<path id="Vector_29" opacity="0.1" d="M552.27 144.87H481.27V170.87H552.27V144.87Z" fill="#3F3D56"/>
<path id="Vector_30" opacity="0.1" d="M652.27 144.87H581.27V170.87H652.27V144.87Z" fill="#3F3D56"/>
<path id="Vector_31" opacity="0.1" d="M764.27 144.87H693.27V170.87H764.27V144.87Z" fill="#3F3D56"/>
<path id="Vector_32" opacity="0.1" d="M878.27 144.87H807.27V170.87H878.27V144.87Z" fill="#3F3D56"/>
<path id="Vector_33" opacity="0.1" d="M999.27 144.87H928.27V170.87H999.27V144.87Z" fill="#3F3D56"/>
<path id="Vector_34" d="M714.17 428.91H685.63C681.212 428.91 677.63 432.492 677.63 436.91V464.03C677.63 468.448 681.212 472.03 685.63 472.03H714.17C718.588 472.03 722.17 468.448 722.17 464.03V436.91C722.17 432.492 718.588 428.91 714.17 428.91Z" fill="#877DE8"/>
<path id="meeting-1" d="M454 190H252C247.582 190 244 193.582 244 198V255C244 259.418 247.582 263 252 263H454C458.418 263 462 259.418 462 255V198C462 193.582 458.418 190 454 190Z" fill="#3726D9" fill-opacity="0.6"/>
<path id="Vector_35" d="M458 282H367C362.582 282 359 285.582 359 290V317C359 321.418 362.582 325 367 325H458C462.418 325 466 321.418 466 317V290C466 285.582 462.418 282 458 282Z" fill="#DC452F" fill-opacity="0.6"/>
<path id="Vector_36" d="M768.13 428.59H739.59C735.172 428.59 731.59 432.172 731.59 436.59V463.71C731.59 468.128 735.172 471.71 739.59 471.71H768.13C772.548 471.71 776.13 468.128 776.13 463.71V436.59C776.13 432.172 772.548 428.59 768.13 428.59Z" fill="#FCA81F" fill-opacity="0.6"/>
<path id="Vector_37" d="M857.92 206.82H811.79V251.48H857.92V206.82Z" fill="url(#paint0_linear)"/>
<path id="Vector_38" d="M849.13 207.59H820.59C816.172 207.59 812.59 211.172 812.59 215.59V242.71C812.59 247.128 816.172 250.71 820.59 250.71H849.13C853.548 250.71 857.13 247.128 857.13 242.71V215.59C857.13 211.172 853.548 207.59 849.13 207.59Z" fill="#FCA81F" fill-opacity="0.6"/>
<path id="meeting-2" d="M769 282H685C680.582 282 677 285.582 677 290V322C677 326.418 680.582 330 685 330H769C773.418 330 777 326.418 777 322V290C777 285.582 773.418 282 769 282Z" fill="#FCA81F" fill-opacity="0.6"/>
<path id="Vector_39" d="M1008 349H798C793.582 349 790 352.582 790 357V384C790 388.418 793.582 392 798 392H1008C1012.42 392 1016 388.418 1016 384V357C1016 352.582 1012.42 349 1008 349Z" fill="#FCA81F" fill-opacity="0.6"/>
<path id="Vector_40" d="M768 565H252C247.582 565 244 568.582 244 573V605C244 609.418 247.582 613 252 613H768C772.418 613 776 609.418 776 605V573C776 568.582 772.418 565 768 565Z" fill="#DC452F" fill-opacity="0.6"/>
<path id="Vector_41" d="M884 423H801C796.582 423 793 426.582 793 431V458C793 462.418 796.582 466 801 466H884C888.418 466 892 462.418 892 458V431C892 426.582 888.418 423 884 423Z" fill="#DC452F" fill-opacity="0.6"/>
<path id="Vector_42" opacity="0.1" d="M200.27 285.87H147.27V311.87H200.27V285.87Z" fill="#3F3D56"/>
<path id="Vector_43" opacity="0.1" d="M200.27 358.87H147.27V384.87H200.27V358.87Z" fill="#3F3D56"/>
<path id="Vector_44" opacity="0.1" d="M200.27 431.87H147.27V457.87H200.27V431.87Z" fill="#3F3D56"/>
<path id="Vector_45" opacity="0.1" d="M200.27 504.87H147.27V530.87H200.27V504.87Z" fill="#3F3D56"/>
<path id="Vector_46" opacity="0.1" d="M200.27 577.87H147.27V603.87H200.27V577.87Z" fill="#3F3D56"/>
</g>
<defs>
<linearGradient id="paint0_linear" x1="39323.9" y1="11437.9" x2="39323.9" y2="9443.4" gradientUnits="userSpaceOnUse">
<stop stop-color="#808080" stop-opacity="0.25"/>
<stop offset="0.54" stop-color="#808080" stop-opacity="0.12"/>
<stop offset="1" stop-color="#808080" stop-opacity="0.1"/>
</linearGradient>
</defs>
</svg>
