<svg width="100" height="100" viewBox="0 0 100 100" fill="none" xmlns="http://www.w3.org/2000/svg">
<g id="shape-4">
<path id="Ellipse 17" d="M100 50C100 43.4339 98.7067 36.9321 96.194 30.8658C93.6812 24.7995 89.9983 19.2876 85.3553 14.6447C80.7124 10.0017 75.2004 6.31876 69.1342 3.80602C63.0679 1.29329 56.5661 -2.87013e-07 50 0C43.4339 2.87013e-07 36.9321 1.29329 30.8658 3.80602C24.7995 6.31876 19.2876 10.0017 14.6447 14.6447C10.0017 19.2876 6.31876 24.7996 3.80602 30.8658C1.29329 36.9321 -5.74026e-07 43.4339 0 50L50 50H100Z" fill="#9D6807"/>
<path id="Ellipse 18" d="M0.0934601 49.8435C0.0934601 56.3767 1.38028 62.846 3.88045 68.882C6.38063 74.9179 10.0452 80.4023 14.6649 85.022C19.2846 89.6417 24.769 93.3063 30.805 95.8065C36.8409 98.3066 43.3102 99.5935 49.8435 99.5935C56.3767 99.5935 62.846 98.3066 68.882 95.8065C74.9179 93.3063 80.4023 89.6417 85.022 85.022C89.6417 80.4023 93.3063 74.9179 95.8065 68.882C98.3066 62.846 99.5935 56.3767 99.5935 49.8435L49.8435 49.8435L0.0934601 49.8435Z" fill="#F8C462"/>
</g>
</svg>
