<svg width="115" height="115" viewBox="0 0 115 115" fill="none" xmlns="http://www.w3.org/2000/svg">
<g id="shape-16">
<circle id="Ellipse 9" cx="7.5" cy="7.5" r="7.5" fill="#1D76CF"/>
<circle id="Ellipse 14" cx="7.5" cy="32.5" r="7.5" fill="#1D76CF"/>
<circle id="Ellipse 19" cx="7.5" cy="57.5" r="7.5" fill="#1D76CF"/>
<circle id="Ellipse 24" cx="7.5" cy="82.5" r="7.5" fill="#1D76CF"/>
<circle id="Ellipse 29" cx="7.5" cy="107.5" r="7.5" fill="#1D76CF"/>
<circle id="Ellipse 10" cx="32.5" cy="7.5" r="7.5" fill="#1D76CF"/>
<circle id="Ellipse 15" cx="32.5" cy="32.5" r="7.5" fill="#1D76CF"/>
<circle id="Ellipse 20" cx="32.5" cy="57.5" r="7.5" fill="#1D76CF"/>
<circle id="Ellipse 25" cx="32.5" cy="82.5" r="7.5" fill="#1D76CF"/>
<circle id="Ellipse 30" cx="32.5" cy="107.5" r="7.5" fill="#1D76CF"/>
<circle id="Ellipse 11" cx="57.5" cy="7.5" r="7.5" fill="#1D76CF"/>
<circle id="Ellipse 16" cx="57.5" cy="32.5" r="7.5" fill="#1D76CF"/>
<circle id="Ellipse 21" cx="57.5" cy="57.5" r="7.5" fill="#1D76CF"/>
<circle id="Ellipse 26" cx="57.5" cy="82.5" r="7.5" fill="#1D76CF"/>
<circle id="Ellipse 31" cx="57.5" cy="107.5" r="7.5" fill="#1D76CF"/>
<circle id="Ellipse 12" cx="82.5" cy="7.5" r="7.5" fill="#1D76CF"/>
<circle id="Ellipse 17" cx="82.5" cy="32.5" r="7.5" fill="#1D76CF"/>
<circle id="Ellipse 22" cx="82.5" cy="57.5" r="7.5" fill="#1D76CF"/>
<circle id="Ellipse 27" cx="82.5" cy="82.5" r="7.5" fill="#1D76CF"/>
<circle id="Ellipse 32" cx="82.5" cy="107.5" r="7.5" fill="#1D76CF"/>
<circle id="Ellipse 13" cx="107.5" cy="7.5" r="7.5" fill="#1D76CF"/>
<circle id="Ellipse 18" cx="107.5" cy="32.5" r="7.5" fill="#1D76CF"/>
<circle id="Ellipse 23" cx="107.5" cy="57.5" r="7.5" fill="#1D76CF"/>
<circle id="Ellipse 28" cx="107.5" cy="82.5" r="7.5" fill="#1D76CF"/>
<circle id="Ellipse 33" cx="107.5" cy="107.5" r="7.5" fill="#1D76CF"/>
</g>
</svg>
