<svg width="150" height="150" viewBox="0 0 150 150" fill="none" xmlns="http://www.w3.org/2000/svg">
<g id="shape-5">
<path id="Ellipse 19" d="M75 0C65.1509 0 55.3982 1.93993 46.2987 5.70904C37.1993 9.47814 28.9314 15.0026 21.967 21.967C15.0026 28.9314 9.47814 37.1993 5.70903 46.2987C1.93993 55.3982 -4.3052e-07 65.1509 0 75C4.3052e-07 84.8491 1.93993 94.6018 5.70904 103.701C9.47814 112.801 15.0026 121.069 21.967 128.033C28.9314 134.997 37.1993 140.522 46.2987 144.291C55.3982 148.06 65.1509 150 75 150L75 75L75 0Z" fill="#9D6807"/>
<path id="Ellipse 20" d="M75 150C84.8491 150 94.6018 148.06 103.701 144.291C112.801 140.522 121.069 134.997 128.033 128.033C134.997 121.069 140.522 112.801 144.291 103.701C148.06 94.6018 150 84.8491 150 75C150 65.1509 148.06 55.3982 144.291 46.2987C140.522 37.1993 134.997 28.9314 128.033 21.967C121.069 15.0026 112.801 9.47814 103.701 5.70903C94.6018 1.93993 84.8491 -8.61039e-07 75 0L75 75L75 150Z" fill="#00478F"/>
</g>
</svg>
